<?xml version="1.0" standalone="no"?>
<!DOCTYPE svg PUBLIC "-//W3C//DTD SVG 20010904//EN"
 "http://www.w3.org/TR/2001/REC-SVG-20010904/DTD/svg10.dtd">
<svg version="1.0" xmlns="http://www.w3.org/2000/svg"
 width="300.000000pt" height="325.000000pt" viewBox="0 0 300.000000 325.000000"
 preserveAspectRatio="xMidYMid meet">
<metadata>
Created by potrace 1.10, written by Peter Selinger 2001-2011
</metadata>
<g transform="translate(0.000000,325.000000) scale(0.100000,-0.100000)"
fill="#000000" stroke="none">
<path d="M1060 3165 c-8 -2 -199 -6 -425 -9 -226 -2 -420 -7 -432 -10 -11 -2
-42 -8 -67 -11 -62 -10 -71 -23 -57 -82 10 -45 62 -380 81 -523 5 -36 18 -114
29 -175 12 -60 41 -238 66 -395 25 -157 49 -307 55 -335 5 -27 12 -72 15 -100
5 -44 11 -82 30 -192 3 -16 10 -66 16 -113 6 -47 24 -166 40 -265 66 -421 78
-479 106 -522 8 -12 12 -23 7 -23 -4 0 1 -6 12 -14 24 -18 29 -14 15 12 -9 17
-30 136 -61 342 -6 36 -17 108 -26 160 -9 52 -18 109 -20 125 -3 17 -9 53 -14
80 -5 28 -12 79 -15 115 -4 36 -13 101 -22 145 -21 107 -21 110 -23 110 -1 0
-3 16 -5 35 -9 77 -14 111 -20 120 -3 5 -12 56 -20 112 -8 57 -17 114 -20 128
-11 51 -37 217 -42 270 -2 30 -9 71 -14 90 -5 19 -5 38 -1 41 4 4 48 21 97 37
262 87 817 128 1198 87 82 -8 163 -15 180 -15 37 1 306 -34 385 -51 33 -6 56
-17 62 -29 9 -17 3 -87 -14 -165 -2 -11 -7 -45 -11 -75 -4 -30 -9 -58 -12 -62
-2 -4 -6 -42 -8 -85 -2 -43 -11 -134 -20 -203 -9 -69 -19 -151 -22 -183 -3
-36 -11 -61 -19 -64 -9 -3 -14 -19 -13 -42 1 -33 2 -34 10 -11 5 16 6 -7 3
-63 -7 -113 -7 -112 -24 -133 -11 -13 -12 -16 -2 -10 17 10 14 -55 -11 -214
-8 -58 -23 -166 -32 -240 -9 -74 -23 -165 -31 -202 -26 -116 -114 -227 -244
-310 -36 -22 -78 -50 -94 -61 -33 -23 -208 -73 -299 -86 -153 -22 -406 11
-534 69 -34 16 -65 25 -69 22 -4 -4 -4 -2 0 5 4 7 -5 18 -23 27 -33 18 -121
103 -121 118 0 5 -6 8 -12 5 -7 -2 -19 3 -26 12 -11 14 -12 13 -3 -6 6 -12 25
-31 41 -43 17 -12 28 -25 25 -30 -7 -12 64 -72 131 -112 105 -61 320 -109 453
-101 204 12 428 69 495 124 6 5 36 26 66 47 31 20 84 67 118 104 95 103 115
163 148 438 21 185 36 281 49 315 8 22 14 56 15 74 0 27 3 32 12 23 8 -8 50
-12 125 -12 66 0 113 -4 113 -10 0 -5 38 -8 91 -7 50 1 80 4 67 8 l-23 5 22
12 c12 7 30 12 41 12 29 0 125 74 156 120 15 22 31 38 36 35 6 -3 7 1 4 9 -3
9 -2 16 4 16 6 0 26 48 45 108 68 208 79 254 102 402 l14 95 -5 -80 c-11 -171
-54 -351 -121 -511 -30 -71 -49 -101 -97 -149 -33 -33 -59 -64 -57 -68 1 -5
-3 -6 -8 -3 -14 9 -42 -5 -34 -17 4 -6 0 -8 -11 -4 -11 4 -15 3 -10 -4 4 -8
-1 -9 -16 -4 -15 5 -20 4 -16 -4 5 -7 -4 -9 -26 -7 -18 2 -38 0 -43 -4 -6 -5
-75 -4 -154 1 -156 11 -188 8 -188 -17 0 -15 18 -16 196 -11 132 4 212 11 246
21 102 31 216 157 270 297 64 166 113 349 135 504 24 163 -5 377 -66 482 -65
113 -213 185 -427 208 -73 7 -134 11 -136 9 -11 -10 2 -13 154 -29 66 -7 125
-20 160 -35 22 -10 57 -25 78 -34 60 -24 130 -91 166 -157 l23 -44 -40 46
c-97 109 -204 152 -410 164 -172 10 -172 10 -172 52 0 20 -7 45 -17 55 -15 17
-15 25 0 115 9 54 19 107 21 118 2 12 7 48 11 80 10 82 13 96 26 128 19 45 -2
56 -122 68 -99 10 -1107 22 -1139 14z m945 -26 c83 -6 174 -10 203 -10 53 2
102 -17 102 -39 0 -6 -21 -10 -47 -11 l-48 -1 36 -12 c33 -10 35 -13 31 -46
-2 -19 -7 -39 -11 -45 -5 -5 -9 -35 -10 -65 -1 -30 -10 -98 -20 -150 -16 -82
-17 -97 -5 -111 8 -8 14 -26 14 -40 0 -27 -27 -129 -30 -114 -4 19 -18 -40
-19 -77 -1 -20 -5 -48 -11 -62 l-9 -25 -38 19 c-20 10 -43 16 -50 13 -7 -3
-13 -1 -13 5 0 5 -12 8 -27 6 -16 -2 -41 1 -58 6 -16 5 -66 12 -110 16 -44 3
-86 11 -94 17 -12 9 -13 9 -7 0 5 -9 2 -11 -8 -7 -14 6 -84 10 -194 13 -29 0
-51 4 -49 9 3 4 -28 7 -68 6 -41 0 -72 2 -70 5 2 3 -31 5 -73 4 -43 -1 -156
-3 -252 -4 -96 -1 -179 -5 -185 -8 -5 -3 -32 -6 -60 -7 -27 0 -63 -4 -78 -9
-18 -5 -33 -3 -40 4 -13 13 -31 15 -22 2 6 -11 -31 -25 -44 -16 -5 3 -12 1
-16 -5 -4 -6 -10 -8 -15 -5 -5 3 -18 1 -29 -5 -11 -5 -48 -12 -83 -14 -35 -2
-74 -8 -88 -14 -14 -5 -28 -8 -33 -5 -4 2 -7 0 -7 -5 0 -9 -18 -14 -80 -25 -9
-2 -21 -6 -28 -11 -6 -4 -17 -4 -24 0 -6 4 -8 3 -4 -4 3 -6 2 -13 -4 -17 -5
-3 -10 -3 -11 2 -1 16 -7 58 -13 87 -3 16 -10 52 -15 80 -15 79 -21 154 -11
131 8 -18 9 -18 9 -2 1 10 -6 20 -14 23 -10 4 -15 21 -15 52 -1 71 -4 91 -11
87 -3 -2 -7 19 -8 47 -1 28 -4 54 -6 58 -3 5 -8 37 -11 71 -3 35 -10 71 -15
81 -15 28 -11 37 23 48 l33 10 -37 -3 c-43 -3 -53 19 -18 41 29 18 259 32 555
33 143 1 361 4 485 8 296 8 668 4 855 -10z m390 -628 c50 -5 97 -9 105 -9 43
1 188 -44 224 -70 48 -34 120 -136 138 -195 16 -54 16 -259 0 -352 -16 -88
-85 -333 -117 -414 -46 -119 -140 -220 -230 -247 -32 -10 -114 -17 -235 -21
-162 -5 -187 -4 -199 10 -15 19 -14 31 28 342 17 127 35 268 41 315 17 132 18
144 44 335 38 273 38 275 47 281 5 3 9 16 9 29 0 22 3 23 28 15 15 -5 68 -13
117 -19z m270 -29 c-3 -3 -11 0 -18 7 -9 10 -8 11 6 5 10 -3 15 -9 12 -12z
m101 -43 c136 -93 189 -245 166 -480 -17 -173 -90 -465 -138 -547 -8 -15 -13
-20 -10 -12 2 8 21 63 40 122 58 174 105 503 90 626 -15 127 -82 231 -194 305
-29 18 -36 26 -20 22 14 -4 43 -20 66 -36z m122 -244 c0 -16 -2 -15 -8 5 -11
34 -11 60 0 35 5 -11 8 -29 8 -40z m9 -162 c-2 -27 -3 -5 -3 47 0 52 1 74 3
48 2 -27 2 -69 0 -95z m-504 -860 c-7 -2 -21 -2 -30 0 -10 3 -4 5 12 5 17 0
24 -2 18 -5z m-43 -57 c8 -2 -37 -4 -100 -4 -63 1 -99 3 -80 7 33 6 148 4 180
-3z m-1670 -893 c0 -7 -58 36 -66 49 -4 7 9 -1 29 -16 20 -16 37 -30 37 -33z
m347 -129 c-3 -3 -12 -4 -19 -1 -8 3 -5 6 6 6 11 1 17 -2 13 -5z m86 -11 c-7
-2 -21 -2 -30 0 -10 3 -4 5 12 5 17 0 24 -2 18 -5z"/>
<path d="M1152 3134 c8 -7 278 -7 286 0 3 3 -61 6 -143 6 -82 0 -146 -3 -143
-6z"/>
<path d="M2213 3113 c9 -2 23 -2 30 0 6 3 -1 5 -18 5 -16 0 -22 -2 -12 -5z"/>
<path d="M128 3103 c7 -3 16 -2 19 1 4 3 -2 6 -13 5 -11 0 -14 -3 -6 -6z"/>
<path d="M1335 3080 c-3 -6 1 -7 9 -4 18 7 21 14 7 14 -6 0 -13 -4 -16 -10z"/>
<path d="M925 3060 c4 -6 -55 -11 -157 -13 -152 -2 -148 -3 56 -5 121 -1 217
0 214 3 -3 3 -26 6 -52 7 -25 0 -46 4 -46 9 0 5 -5 9 -11 9 -5 0 -7 -4 -4 -10z"/>
<path d="M1200 3058 c-14 -5 -40 -8 -57 -6 -18 2 -33 0 -33 -4 0 -10 88 -9
114 1 11 4 15 10 10 13 -5 3 -20 1 -34 -4z"/>
<path d="M225 3050 c3 -5 8 -10 11 -10 2 0 4 5 4 10 0 6 -5 10 -11 10 -5 0 -7
-4 -4 -10z"/>
<path d="M270 3054 c32 -7 188 -9 183 -1 -2 4 -48 6 -101 6 -53 -1 -90 -3 -82
-5z"/>
<path d="M1050 3056 c0 -9 30 -14 35 -6 4 6 -3 10 -14 10 -12 0 -21 -2 -21 -4z"/>
<path d="M1470 3048 c0 -4 11 -7 25 -6 14 1 25 6 25 10 0 4 -11 7 -25 6 -14
-1 -25 -6 -25 -10z"/>
<path d="M1537 3053 c-3 -5 59 -7 136 -5 265 4 292 8 80 10 -116 1 -214 -1
-216 -5z"/>
<path d="M2118 3053 c7 -3 16 -2 19 1 4 3 -2 6 -13 5 -11 0 -14 -3 -6 -6z"/>
<path d="M1293 3043 c26 -2 68 -2 95 0 26 2 4 3 -48 3 -52 0 -74 -1 -47 -3z"/>
<path d="M2185 3019 c9 -15 15 -31 14 -35 -1 -5 -1 -17 0 -27 2 -27 18 -11 23
22 2 17 1 28 -4 25 -5 -3 -18 5 -29 18 l-20 23 16 -26z"/>
<path d="M1032 3014 c7 -7 209 -6 216 1 3 3 -46 5 -108 5 -62 0 -111 -3 -108
-6z"/>
<path d="M2136 2995 c-3 -9 -6 -24 -5 -33 0 -9 5 -4 10 12 9 32 6 48 -5 21z"/>
<path d="M2237 2973 c-3 -16 -1 -35 4 -43 6 -10 8 -2 9 28 0 48 -5 55 -13 15z"/>
<path d="M130 2958 c0 -9 5 -20 10 -23 13 -8 13 5 0 25 -8 13 -10 13 -10 -2z"/>
<path d="M2174 2929 c-4 -7 -3 -9 4 -5 5 3 13 0 15 -6 4 -9 6 -10 6 -1 1 17
-16 25 -25 12z"/>
<path d="M2086 2693 c-6 -14 -5 -15 5 -6 7 7 10 15 7 18 -3 3 -9 -2 -12 -12z"/>
<path d="M2025 2590 c-3 -5 -1 -10 4 -10 6 0 11 5 11 10 0 6 -2 10 -4 10 -3 0
-8 -4 -11 -10z"/>
<path d="M2186 2573 c-6 -14 -5 -15 5 -6 7 7 10 15 7 18 -3 3 -9 -2 -12 -12z"/>
<path d="M2120 2560 c0 -11 4 -20 9 -20 5 0 7 9 4 20 -3 11 -7 20 -9 20 -2 0
-4 -9 -4 -20z"/>
<path d="M2220 2570 c-8 -26 -7 -41 2 -32 6 6 8 16 5 24 -3 7 -6 11 -7 8z"/>
<path d="M1220 2470 c0 -5 5 -10 11 -10 5 0 7 5 4 10 -3 6 -8 10 -11 10 -2 0
-4 -4 -4 -10z"/>
<path d="M850 2442 c0 -5 7 -9 15 -9 8 0 12 4 9 9 -3 4 -9 8 -15 8 -5 0 -9 -4
-9 -8z"/>
<path d="M480 2400 c0 -5 5 -10 11 -10 5 0 7 5 4 10 -3 6 -8 10 -11 10 -2 0
-4 -4 -4 -10z"/>
<path d="M438 2393 c7 -3 16 -2 19 1 4 3 -2 6 -13 5 -11 0 -14 -3 -6 -6z"/>
<path d="M2305 2580 c-8 -12 21 -20 77 -20 56 0 60 9 7 14 -19 2 -44 6 -56 9
-13 3 -25 2 -28 -3z"/>
<path d="M1350 2270 c0 -5 5 -10 10 -10 6 0 10 5 10 10 0 6 -4 10 -10 10 -5 0
-10 -4 -10 -10z"/>
<path d="M778 2123 c7 -3 16 -2 19 1 4 3 -2 6 -13 5 -11 0 -14 -3 -6 -6z"/>
<path d="M1970 2039 c0 -5 5 -7 10 -4 6 3 10 8 10 11 0 2 -4 4 -10 4 -5 0 -10
-5 -10 -11z"/>
<path d="M880 1959 c0 -5 5 -7 10 -4 6 3 10 8 10 11 0 2 -4 4 -10 4 -5 0 -10
-5 -10 -11z"/>
<path d="M1865 1280 c-3 -5 -1 -10 4 -10 6 0 11 5 11 10 0 6 -2 10 -4 10 -3 0
-8 -4 -11 -10z"/>
<path d="M1972 1200 c0 -14 2 -19 5 -12 2 6 2 18 0 25 -3 6 -5 1 -5 -13z"/>
<path d="M2153 1163 c15 -2 39 -2 55 0 15 2 2 4 -28 4 -30 0 -43 -2 -27 -4z"/>
<path d="M2408 1133 c6 -2 18 -2 25 0 6 3 1 5 -13 5 -14 0 -19 -2 -12 -5z"/>
<path d="M1928 630 c-12 -39 -10 -76 3 -63 6 6 9 28 7 49 -3 35 -4 36 -10 14z"/>
<path d="M1911 494 c0 -11 3 -14 6 -6 3 7 2 16 -1 19 -3 4 -6 -2 -5 -13z"/>
</g>
</svg>
